<svg xmlns:xlink="http://www.w3.org/1999/xlink" xmlns="http://www.w3.org/2000/svg" version="1.1" viewBox="0 0 400 400" height="400px" width="400px">
    <title>暂无货源</title>
    <defs>
        <linearGradient id="linearGradient-1" y2="50%" x2="-25.0446012%" y1="50%" x1="120.941398%">
            <stop offset="0%" stop-opacity="0" stop-color="#B2CAF4"></stop>
            <stop offset="100%" stop-color="#81BAFF"></stop>
        </linearGradient>
        <filter id="filter-2" filterUnits="objectBoundingBox" height="154.5%" width="105.5%" y="-27.3%" x="-2.7%">
            <feGaussianBlur in="SourceGraphic" stdDeviation="1"></feGaussianBlur>
        </filter>
        <filter id="filter-3" filterUnits="objectBoundingBox" height="1780.6%" width="610.7%" y="-840.3%" x="-255.4%">
            <feGaussianBlur in="SourceGraphic" stdDeviation="11 0"></feGaussianBlur>
        </filter>
        <linearGradient id="linearGradient-4" y2="100%" x2="40.5602192%" y1="9.70683346%" x1="56.0629425%">
            <stop offset="0%" stop-color="#EDF5FF"></stop>
            <stop offset="100%" stop-color="#A1B6CC"></stop>
        </linearGradient>
        <linearGradient id="linearGradient-5" y2="100%" x2="57.1197514%" y1="7.58435735%" x1="45.3436671%">
            <stop offset="0%" stop-color="#EEF4FF"></stop>
            <stop offset="100%" stop-color="#A1B6CC"></stop>
        </linearGradient>
        <linearGradient id="linearGradient-6" y2="-44.1478976%" x2="42.237335%" y1="100%" x1="42.237335%">
            <stop offset="0%" stop-color="#F7F8F9"></stop>
            <stop offset="100%" stop-color="#D5E4F8"></stop>
        </linearGradient>
        <linearGradient id="linearGradient-7" y2="2.85716708%" x2="42.237335%" y1="99.7096706%" x1="42.237335%">
            <stop offset="0%" stop-opacity="0" stop-color="#F2F4F9"></stop>
            <stop offset="100%" stop-color="#E7EEFF"></stop>
        </linearGradient>
        <linearGradient id="linearGradient-8" y2="2.85716708%" x2="42.237335%" y1="99.7096706%" x1="42.237335%">
            <stop offset="0%" stop-opacity="0" stop-color="#F2F4F9"></stop>
            <stop offset="100%" stop-color="#E7EEFF"></stop>
        </linearGradient>
        <linearGradient id="linearGradient-9" y2="0%" x2="42.237335%" y1="100%" x1="42.237335%">
            <stop offset="0.290329392%" stop-opacity="0" stop-color="#F2F4F9"></stop>
            <stop offset="97.9756123%" stop-color="#EAF0FF"></stop>
        </linearGradient>
        <filter id="filter-10" filterUnits="objectBoundingBox" height="2180.4%" width="765.8%" y="-1040.2%" x="-332.9%">
            <feGaussianBlur in="SourceGraphic" stdDeviation="11 0"></feGaussianBlur>
        </filter>
        <linearGradient id="linearGradient-11" y2="100%" x2="39.1222879%" y1="9.70683346%" x1="56.9864909%">
            <stop offset="0%" stop-color="#EDF5FF"></stop>
            <stop offset="100%" stop-color="#A1B6CC"></stop>
        </linearGradient>
        <linearGradient id="linearGradient-12" y2="100%" x2="58.6525294%" y1="7.58435735%" x1="44.341227%">
            <stop offset="0%" stop-color="#EEF4FF"></stop>
            <stop offset="100%" stop-color="#A1B6CC"></stop>
        </linearGradient>
        <filter id="filter-13" filterUnits="objectBoundingBox" height="1767.4%" width="607.7%" y="-833.7%" x="-253.8%">
            <feGaussianBlur in="SourceGraphic" stdDeviation="11 0"></feGaussianBlur>
        </filter>
        <linearGradient id="linearGradient-14" y2="100%" x2="39.0945518%" y1="9.70683346%" x1="57.0043051%">
            <stop offset="0%" stop-color="#EDF5FF"></stop>
            <stop offset="100%" stop-color="#A1B6CC"></stop>
        </linearGradient>
        <linearGradient id="linearGradient-15" y2="100%" x2="58.7826852%" y1="7.58435735%" x1="44.2561048%">
            <stop offset="0%" stop-color="#EEF4FF"></stop>
            <stop offset="100%" stop-color="#A1B6CC"></stop>
        </linearGradient>
        <linearGradient id="linearGradient-16" y2="124.290773%" x2="50%" y1="0%" x1="50%">
            <stop offset="0%" stop-color="#B6C8DF"></stop>
            <stop offset="100%" stop-color="#D6E1F1"></stop>
        </linearGradient>
        <linearGradient id="linearGradient-17" y2="100%" x2="50%" y1="0%" x1="50%">
            <stop offset="0%" stop-color="#BECEE8"></stop>
            <stop offset="100%" stop-color="#E7EEFA"></stop>
        </linearGradient>
        <linearGradient id="linearGradient-18" y2="100%" x2="50%" y1="0%" x1="50%">
            <stop offset="0%" stop-color="#CCD8EB"></stop>
            <stop offset="100%" stop-color="#E7EEFA"></stop>
        </linearGradient>
        <linearGradient id="linearGradient-19" y2="100%" x2="50%" y1="0%" x1="50%">
            <stop offset="0%" stop-color="#BDCDE7"></stop>
            <stop offset="100%" stop-color="#EFF5FF"></stop>
        </linearGradient>
        <linearGradient id="linearGradient-20" y2="100%" x2="50%" y1="0%" x1="50%">
            <stop offset="0%" stop-color="#CCD8EB"></stop>
            <stop offset="100%" stop-color="#E7EEFA"></stop>
        </linearGradient>
        <linearGradient id="linearGradient-21" y2="100%" x2="50%" y1="0%" x1="50%">
            <stop offset="0%" stop-color="#BECEE8"></stop>
            <stop offset="100%" stop-color="#E7EEFA"></stop>
        </linearGradient>
        <linearGradient id="linearGradient-22" y2="100%" x2="50%" y1="0%" x1="50%">
            <stop offset="0%" stop-color="#CCD8EB"></stop>
            <stop offset="100%" stop-color="#E7EEFA"></stop>
        </linearGradient>
        <linearGradient id="linearGradient-23" y2="100%" x2="50%" y1="0%" x1="50%">
            <stop offset="0%" stop-color="#F5FAFF"></stop>
            <stop offset="100%" stop-color="#9AB0D0"></stop>
        </linearGradient>
        <path id="path-24" d="M148.979592,-1.49213975e-13 L148.979592,78.7346939 C148.979592,83.1529719 145.39787,86.7346939 140.979592,86.7346939 L8,86.7346939 C3.581722,86.7346939 5.41083001e-16,83.1529719 0,78.7346939 L0,-1.49213975e-13 L60.9693878,-2.78888024e-13 L60.9693878,-2.78888024e-13 C60.9693878,7.49529303 67.0226807,13.5714286 74.4897959,13.5714286 C81.9569112,13.5714286 88.0102041,7.49529303 88.0102041,-2.78888024e-13 L148.979592,-1.49213975e-13 Z"></path>
        <linearGradient id="linearGradient-26" y2="100%" x2="50%" y1="0%" x1="50%">
            <stop offset="0%" stop-color="#E6F1FD"></stop>
            <stop offset="100%" stop-color="#AABCD6"></stop>
        </linearGradient>
        <linearGradient id="linearGradient-27" y2="50.2203864%" x2="99.7796136%" y1="50.2203864%" x1="0.220386402%">
            <stop offset="0%" stop-color="#B3C7E2"></stop>
            <stop offset="100%" stop-color="#D4E1F2"></stop>
        </linearGradient>
        <path id="path-28" d="M56.9627851,76.5306122 L95.7382953,76.5306122 C101.092076,76.5306122 105.432173,80.8707091 105.432173,86.2244898 C105.432173,91.5782705 101.092076,95.9183673 95.7382953,95.9183673 L56.9627851,95.9183673 C51.6090044,95.9183673 47.2689076,91.5782705 47.2689076,86.2244898 C47.2689076,80.8707091 51.6090044,76.5306122 56.9627851,76.5306122 Z"></path>
        <linearGradient id="linearGradient-30" y2="50.2203864%" x2="99.7796136%" y1="50.2203864%" x1="0.220386402%">
            <stop offset="0%" stop-color="#FFFFFF"></stop>
            <stop offset="100%" stop-opacity="0.0974377185" stop-color="#FFFFFF"></stop>
        </linearGradient>
        <path id="path-31" d="M56.2689076,75.9183673 L96.4321729,75.9183673 C101.402736,75.9183673 105.432173,79.9478046 105.432173,84.9183673 C105.432173,89.8889301 101.402736,93.9183673 96.4321729,93.9183673 L56.2689076,93.9183673 C51.2983448,93.9183673 47.2689076,89.8889301 47.2689076,84.9183673 C47.2689076,79.9478046 51.2983448,75.9183673 56.2689076,75.9183673 Z"></path>
        <linearGradient id="linearGradient-33" y2="6.45169936%" x2="50%" y1="115.036372%" x1="50%">
            <stop offset="0%" stop-color="#FFFFFF"></stop>
            <stop offset="100%" stop-color="#BED0E8"></stop>
        </linearGradient>
        <linearGradient id="linearGradient-34" y2="6.45169936%" x2="50%" y1="115.036372%" x1="50%">
            <stop offset="0%" stop-opacity="0.0974377185" stop-color="#FFFFFF"></stop>
            <stop offset="100%" stop-color="#FFFFFF"></stop>
        </linearGradient>
    </defs>
    <g fill-rule="evenodd" fill="none" stroke-width="1" stroke="none" id="页面-1">
        <g id="暂无货源">
            <g id="编组-14">
                <rect height="400" width="400" y="0" x="0" fill="#FFFFFF" id="矩形"></rect>
                <ellipse ry="5.5" rx="55" cy="326.5" cx="200" filter="url(#filter-2)" opacity="0.330984933" style="mix-blend-mode: multiply;" fill="url(#linearGradient-1)" id="椭圆形"></ellipse>
                <g transform="translate(62.000000, 217.000000)" opacity="0.779366629" id="编组备份-2">
                    <ellipse ry="1.96363636" rx="6.46153846" cy="30.4363636" cx="17.5384615" filter="url(#filter-3)" opacity="0.598842076" fill="#85A0C7" id="椭圆形"></ellipse>
                    <path opacity="0.576520647" fill="url(#linearGradient-4)" id="椭圆形" d="M11.8617335,30.4039701 C13.694791,31.1838754 22.2783852,17.6565961 23.5292687,14.0447619 C24.7801522,10.4329278 23.4521686,6.50850351 20.5631343,5.27931501 C17.6740999,4.05012652 14.3180334,5.98164248 13.0671499,9.59347665 C11.8162664,13.2053108 10.028676,29.6240648 11.8617335,30.4039701 Z"></path>
                    <path fill="url(#linearGradient-5)" id="椭圆形" d="M12.1873699,30.4182368 C14.4159111,29.7723371 14.0881815,10.5754182 13.0126041,6.23350474 C11.9370266,1.89159124 8.21777978,-0.802984658 4.70543378,0.215001032 C1.19308778,1.23298672 -0.782303428,5.57804352 0.293274029,9.91995703 C1.36885149,14.2618705 9.95882868,31.0641365 12.1873699,30.4182368 Z"></path>
                </g>
                <path opacity="0.7" fill="url(#linearGradient-6)" id="形状结合" d="M63.5,91 C63.0401728,91 62.5872492,90.9704419 62.1430256,90.9131222 C61.6035521,90.970811 61.0551848,91 60.5,91 C51.9395864,91 45,84.0604136 45,75.5 C45,66.9395864 51.9395864,60 60.5,60 C61.4860328,60 62.4505611,60.0920718 63.3854566,60.2680872 C66.8949844,53.5703522 73.9137607,49 82,49 C93.5979797,49 103,58.4020203 103,70 L103,70 L115.5,70 C121.29899,70 126,74.7010101 126,80.5 C126,86.2989899 121.29899,91 115.5,91 L63.5,91 Z"></path>
                <g transform="translate(40.000000, 244.000000)" id="编组-2">
                    <path fill="url(#linearGradient-7)" id="路径" d="M0,52 C17.3733745,26.5416667 33.962502,13.8125 49.7673826,13.8125 C65.5722631,13.8125 83.6498023,26.5416667 104,52 L0,52 Z"></path>
                    <path fill="url(#linearGradient-8)" id="路径-2" d="M61.6,52 C79.9318409,17.3333333 99.5499102,0 120.454208,0 C141.358506,0 179.340436,17.3333333 234.4,52 L61.6,52 Z"></path>
                    <path fill="url(#linearGradient-9)" id="路径-3" d="M320,52 C300.857606,24.9166667 282.803627,11.375 265.838063,11.375 C248.872499,11.375 221.593145,24.9166667 184,52 L320,52 Z"></path>
                </g>
                <g transform="translate(286.000000, 199.000000)" id="编组-62">
                    <ellipse ry="1.5862069" rx="4.95652174" cy="21.4137931" cx="14.0434783" filter="url(#filter-10)" opacity="0.669852121" fill="#85A0C7" id="椭圆形"></ellipse>
                    <path opacity="0.576520647" fill="url(#linearGradient-11)" id="椭圆形" d="M9.68896947,21.3906452 C11.0950726,21.947953 17.6793824,12.2815764 18.6389111,9.70061766 C19.5984398,7.11965894 18.5797691,4.31532836 16.3636465,3.43697 C14.1475239,2.55861163 11.5731499,3.93884193 10.6136212,6.51980065 C9.65409256,9.10075937 8.28286637,20.8333374 9.68896947,21.3906452 Z"></path>
                    <path fill="url(#linearGradient-12)" id="椭圆形" d="M9.4525712,21.4010398 C11.1810364,20.9466109 10.926848,7.44043608 10.092626,4.38564154 C9.25840396,1.330847 6.37374176,-0.564947493 3.64955262,0.151266021 C0.925363493,0.867479535 -0.606757562,3.92448557 0.22746447,6.97928011 C1.0616865,10.0340747 7.72410601,21.8554686 9.4525712,21.4010398 Z"></path>
                </g>
                <g transform="translate(295.000000, 292.000000)" opacity="0.896856399" id="编组">
                    <ellipse ry="1.97916667" rx="6.5" cy="36.0208333" cx="20.9" filter="url(#filter-13)" opacity="0.596865699" fill="#85A0C7" id="椭圆形"></ellipse>
                    <path opacity="0.576520647" fill="url(#linearGradient-14)" id="椭圆形" d="M16.2202535,36.3774869 C18.6032282,37.3207752 29.7619008,20.9596562 31.3880493,16.5911762 C33.0141979,12.2226962 31.2878192,7.47614139 27.5320746,5.98944929 C23.7763299,4.5027572 19.4134435,6.83890786 17.7872949,11.2073878 C16.1611463,15.5758678 13.8372788,35.4341987 16.2202535,36.3774869 Z"></path>
                    <path fill="url(#linearGradient-15)" id="椭圆形" d="M16.1956605,36.3949782 C19.1571441,35.6221686 18.7216279,12.6533342 17.2923049,7.45829781 C15.862982,2.26326142 10.9205162,-0.96075947 6.25299867,0.25724561 C1.58548109,1.47525069 -1.03959433,6.67404799 0.389728598,11.8690844 C1.81905153,17.0641208 13.2341768,37.1677877 16.1956605,36.3949782 Z"></path>
                </g>
            </g>
            <g transform="translate(126.000000, 142.000000)" id="编组-13">
                <polygon points="17.6770708 25.5102041 132.983193 25.5102041 132.983193 62.244898 17.6770708 62.244898" fill="url(#linearGradient-16)" id="矩形"></polygon>
                <path fill="url(#linearGradient-17)" id="矩形" d="M1.46735956,47.8392884 L31.9627851,-1.20792265e-13 L31.9627851,-1.20792265e-13 L31.9627851,36.4888567 L0.840336134,106.933718 L0.840336134,49.9894114 C0.840336134,49.2276184 1.05787237,48.4816659 1.46735956,47.8392884 Z"></path>
                <path fill="url(#linearGradient-18)" id="矩形备份-17" d="M1.46735956,50.8392884 L31.9627851,3 L31.9627851,3 L31.9627851,39.4888567 L0.840336134,109.933718 L0.840336134,52.9894114 C0.840336134,52.2276184 1.05787237,51.4816659 1.46735956,50.8392884 Z"></path>
                <rect height="36.7346939" width="87.755102" y="-8.17124146e-14" x="31.9627851" fill="url(#linearGradient-19)" id="矩形"></rect>
                <rect height="33" width="87.755102" y="2" x="31.9627851" fill="url(#linearGradient-20)" id="矩形备份-16"></rect>
                <path transform="translate(134.768908, 53.061224) scale(-1, 1) translate(-134.768908, -53.061224)" fill="url(#linearGradient-21)" id="矩形" d="M120.328903,47.0371049 L149.819928,0 L149.819928,0 L149.819928,36.4888567 L119.717887,106.122449 L119.717887,49.1619083 C119.717887,48.4103013 119.929649,47.6739008 120.328903,47.0371049 Z"></path>
                <path transform="translate(134.830132, 55.790089) scale(-1, 1) translate(-134.830132, -55.790089)" fill="url(#linearGradient-22)" id="矩形备份-18" d="M120.458346,49.4908318 L149.819928,3 L149.819928,3 L149.819928,39.4888567 L119.840336,108.580178 L119.840336,51.6267492 C119.840336,50.8706777 120.054619,50.1300884 120.458346,49.4908318 Z"></path>
                <g transform="translate(0.840336, 48.979592)" id="形状结合备份-7">
                    <mask fill="white" id="mask-25">
                        <use xlink:href="#path-24"></use>
                    </mask>
                    <use xlink:href="#path-24" fill="url(#linearGradient-23)" id="蒙版"></use>
                    <path mask="url(#mask-25)" fill="url(#linearGradient-26)" d="M148.979592,2 L148.979592,75.0473453 C148.979592,79.4656233 145.39787,83.0473453 140.979592,83.0473453 L8,83.0473453 C3.581722,83.0473453 5.41083001e-16,79.4656233 0,75.0473453 L0,2 L60.9693878,2 L60.9693878,2 C60.9693878,9.49529303 67.0226807,15.5714286 74.4897959,15.5714286 C81.9569112,15.5714286 88.0102041,9.49529303 88.0102041,2 L148.979592,2 Z"></path>
                </g>
                <mask fill="white" id="mask-29">
                    <use xlink:href="#path-28"></use>
                </mask>
                <use xlink:href="#path-28" fill="url(#linearGradient-27)" id="蒙版"></use>
                <mask fill="white" id="mask-32">
                    <use xlink:href="#path-31"></use>
                </mask>
                <use xlink:href="#path-31" fill="url(#linearGradient-30)" id="蒙版备份-4"></use>
            </g>
            <circle r="5.10204082" cy="226.795918" cx="201.840336" fill="url(#linearGradient-33)" id="椭圆形"></circle>
            <circle r="5.10204082" cy="227.795918" cx="201.840336" fill="url(#linearGradient-34)" id="椭圆形备份-17"></circle>
        </g>
    </g>
</svg>